<mxfile host="app.diagrams.net" modified="2024-02-28T11:43:24.197Z" agent="Mozilla/5.0 (Windows NT 10.0; Win64; x64; rv:123.0) Gecko/20100101 Firefox/123.0" etag="7uzE3o8mcHVTKsEetl00" version="23.1.7" type="github">
  <diagram name="Page-1" id="b5b7bab2-c9e2-2cf4-8b2a-24fd1a2a6d21">
    <mxGraphModel dx="1434" dy="746" grid="1" gridSize="10" guides="1" tooltips="1" connect="1" arrows="1" fold="1" page="1" pageScale="1" pageWidth="827" pageHeight="1169" background="none" math="0" shadow="0">
      <root>
        <mxCell id="0" />
        <mxCell id="1" parent="0" />
        <mxCell id="6e0c8c40b5770093-72" value="" style="shape=folder;fontStyle=1;spacingTop=10;tabWidth=194;tabHeight=22;tabPosition=left;html=1;rounded=0;shadow=0;comic=0;labelBackgroundColor=none;strokeWidth=1;fillColor=none;fontFamily=Verdana;fontSize=10;align=center;" parent="1" vertex="1">
          <mxGeometry x="326.5" y="114.5" width="723.5" height="335.5" as="geometry" />
        </mxCell>
        <mxCell id="6e0c8c40b5770093-6" value="" style="group;" parent="1" vertex="1" connectable="0">
          <mxGeometry x="465.5" y="174.5" width="130" height="70" as="geometry" />
        </mxCell>
        <mxCell id="6e0c8c40b5770093-4" value="searchSdk" style="shape=folder;fontStyle=1;spacingTop=10;tabWidth=50;tabHeight=17;tabPosition=left;html=1;rounded=0;shadow=0;comic=0;labelBackgroundColor=none;strokeWidth=1;fontFamily=Verdana;fontSize=10;align=center;" parent="6e0c8c40b5770093-6" vertex="1">
          <mxGeometry width="130" height="70" as="geometry" />
        </mxCell>
        <mxCell id="6e0c8c40b5770093-58" style="rounded=0;html=1;dashed=1;labelBackgroundColor=none;startFill=0;endArrow=open;endFill=0;endSize=10;fontFamily=Verdana;fontSize=10;entryX=0.592;entryY=0.2;entryPerimeter=0;edgeStyle=elbowEdgeStyle;" parent="1" source="6e0c8c40b5770093-4" edge="1">
          <mxGeometry relative="1" as="geometry">
            <mxPoint x="527.26" y="320.5" as="targetPoint" />
          </mxGeometry>
        </mxCell>
        <mxCell id="6e0c8c40b5770093-73" value="Search插件" style="text;html=1;align=left;verticalAlign=top;spacingTop=-4;fontSize=10;fontFamily=Verdana" parent="1" vertex="1">
          <mxGeometry x="327.5" y="114.5" width="130" height="20" as="geometry" />
        </mxCell>
        <mxCell id="LcMAVYmUci6BQMMJHwxl-9" value="" style="group" vertex="1" connectable="0" parent="1">
          <mxGeometry x="460" y="300" width="130" height="70" as="geometry" />
        </mxCell>
        <mxCell id="LcMAVYmUci6BQMMJHwxl-10" value="musicSearchExt" style="shape=folder;fontStyle=1;spacingTop=10;tabWidth=50;tabHeight=17;tabPosition=left;html=1;rounded=0;shadow=0;comic=0;labelBackgroundColor=none;strokeWidth=1;fontFamily=Verdana;fontSize=10;align=center;" vertex="1" parent="LcMAVYmUci6BQMMJHwxl-9">
          <mxGeometry width="130" height="70" as="geometry" />
        </mxCell>
        <mxCell id="LcMAVYmUci6BQMMJHwxl-12" value="" style="group" vertex="1" connectable="0" parent="1">
          <mxGeometry x="650" y="160" width="130" height="70" as="geometry" />
        </mxCell>
        <mxCell id="LcMAVYmUci6BQMMJHwxl-13" value="searchImp" style="shape=folder;fontStyle=1;spacingTop=10;tabWidth=50;tabHeight=17;tabPosition=left;html=1;rounded=0;shadow=0;comic=0;labelBackgroundColor=none;strokeWidth=1;fontFamily=Verdana;fontSize=10;align=center;" vertex="1" parent="LcMAVYmUci6BQMMJHwxl-12">
          <mxGeometry width="130" height="70" as="geometry" />
        </mxCell>
        <mxCell id="LcMAVYmUci6BQMMJHwxl-15" value="eduFitnessImp" style="shape=folder;fontStyle=1;spacingTop=10;tabWidth=50;tabHeight=17;tabPosition=left;html=1;rounded=0;shadow=0;comic=0;labelBackgroundColor=none;strokeWidth=1;fontFamily=Verdana;fontSize=10;align=center;" vertex="1" parent="1">
          <mxGeometry x="650" y="350" width="130" height="70" as="geometry" />
        </mxCell>
        <mxCell id="LcMAVYmUci6BQMMJHwxl-16" value="entertainmentImp" style="shape=folder;fontStyle=1;spacingTop=10;tabWidth=50;tabHeight=17;tabPosition=left;html=1;rounded=0;shadow=0;comic=0;labelBackgroundColor=none;strokeWidth=1;fontFamily=Verdana;fontSize=10;align=center;" vertex="1" parent="1">
          <mxGeometry x="810" y="160" width="130" height="70" as="geometry" />
        </mxCell>
        <mxCell id="LcMAVYmUci6BQMMJHwxl-17" value="vodModule" style="shape=folder;fontStyle=1;spacingTop=10;tabWidth=50;tabHeight=17;tabPosition=left;html=1;rounded=0;shadow=0;comic=0;labelBackgroundColor=none;strokeWidth=1;fontFamily=Verdana;fontSize=10;align=center;" vertex="1" parent="1">
          <mxGeometry x="810" y="254.5" width="130" height="70" as="geometry" />
        </mxCell>
        <mxCell id="LcMAVYmUci6BQMMJHwxl-18" value="kidImp" style="shape=folder;fontStyle=1;spacingTop=10;tabWidth=50;tabHeight=17;tabPosition=left;html=1;rounded=0;shadow=0;comic=0;labelBackgroundColor=none;strokeWidth=1;fontFamily=Verdana;fontSize=10;align=center;" vertex="1" parent="1">
          <mxGeometry x="652" y="254.5" width="130" height="70" as="geometry" />
        </mxCell>
        <mxCell id="LcMAVYmUci6BQMMJHwxl-19" value="commonImp" style="shape=folder;fontStyle=1;spacingTop=10;tabWidth=50;tabHeight=17;tabPosition=left;html=1;rounded=0;shadow=0;comic=0;labelBackgroundColor=none;strokeWidth=1;fontFamily=Verdana;fontSize=10;align=center;" vertex="1" parent="1">
          <mxGeometry x="810" y="350" width="130" height="70" as="geometry" />
        </mxCell>
      </root>
    </mxGraphModel>
  </diagram>
</mxfile>
